<svg width="23" height="18" viewBox="0 0 23 18" fill="none" xmlns="http://www.w3.org/2000/svg">
<path d="M3.94141 17.0322C2.91927 17.0322 2.15104 16.7783 1.63672 16.2705C1.12891 15.7692 0.875 15.014 0.875 14.0049V3.22363C0.875 2.22103 1.11589 1.46908 1.59766 0.967773C2.08594 0.459961 2.76953 0.206055 3.64844 0.206055H19.3711C20.3932 0.206055 21.1582 0.459961 21.666 0.967773C22.1803 1.46908 22.4375 2.22103 22.4375 3.22363V14.0049C22.4375 15.014 22.1934 15.7692 21.7051 16.2705C21.2233 16.7783 20.543 17.0322 19.6641 17.0322H3.94141ZM3.88281 15.5381H19.4297C19.9115 15.5381 20.2826 15.4111 20.543 15.1572C20.8099 14.8968 20.9434 14.516 20.9434 14.0146V3.2334C20.9434 2.72559 20.8099 2.34473 20.543 2.09082C20.2826 1.8304 19.9115 1.7002 19.4297 1.7002H3.88281C3.39453 1.7002 3.02018 1.8304 2.75977 2.09082C2.49935 2.34473 2.36914 2.72233 2.36914 3.22363V14.0049C2.36914 14.5127 2.49935 14.8968 2.75977 15.1572C3.02018 15.4111 3.39453 15.5381 3.88281 15.5381ZM11.6758 11.2217C11.3307 11.2217 10.9889 11.1468 10.6504 10.9971C10.3184 10.8473 9.98307 10.6032 9.64453 10.2646L1.66602 2.43262L2.69141 1.40723L10.4941 9.1123C10.7025 9.31413 10.901 9.46712 11.0898 9.57129C11.2852 9.66895 11.4805 9.71777 11.6758 9.71777C11.8646 9.71777 12.0534 9.66895 12.2422 9.57129C12.4375 9.47363 12.6426 9.32064 12.8574 9.1123L20.6211 1.44629L21.6367 2.47168L13.707 10.2646C13.362 10.6032 13.0234 10.8473 12.6914 10.9971C12.3594 11.1468 12.0208 11.2217 11.6758 11.2217ZM20.5234 15.7529L14.2051 9.50293L15.2207 8.4873L21.5391 14.7275L20.5234 15.7529ZM1.80273 14.7373L8.12109 8.4873L9.14648 9.50293L2.81836 15.7627L1.80273 14.7373Z" fill="#DEA7A7"/>
</svg>
