<svg width="23" height="24" viewBox="0 0 23 24" fill="none" xmlns="http://www.w3.org/2000/svg">
<path d="M6.29688 19.9307C5.58073 19.9307 5.03385 19.7354 4.65625 19.3447C4.28516 18.9606 4.09961 18.3812 4.09961 17.6064V10.8779C4.09961 10.1097 4.28516 9.53353 4.65625 9.14941C5.03385 8.75879 5.58073 8.56348 6.29688 8.56348H15.2324C15.9486 8.56348 16.4922 8.75879 16.8633 9.14941C17.2409 9.53353 17.4297 10.1097 17.4297 10.8779V17.6064C17.4297 18.3812 17.2409 18.9606 16.8633 19.3447C16.4922 19.7354 15.9486 19.9307 15.2324 19.9307H6.29688ZM6.3457 18.4561H15.1836C15.3984 18.4561 15.5612 18.391 15.6719 18.2607C15.7891 18.137 15.8477 17.9548 15.8477 17.7139V10.7705C15.8477 10.5296 15.7891 10.3473 15.6719 10.2236C15.5612 10.0999 15.3984 10.0381 15.1836 10.0381H6.3457C6.13737 10.0381 5.97461 10.0999 5.85742 10.2236C5.74023 10.3473 5.68164 10.5296 5.68164 10.7705V17.7139C5.68164 17.9548 5.74023 18.137 5.85742 18.2607C5.97461 18.391 6.13737 18.4561 6.3457 18.4561ZM5.80859 9.31543V6.22949C5.80859 5.00553 6.04297 3.98991 6.51172 3.18262C6.98698 2.37533 7.60221 1.77311 8.35742 1.37598C9.11263 0.978841 9.91341 0.780273 10.7598 0.780273C11.6126 0.780273 12.4167 0.978841 13.1719 1.37598C13.9271 1.77311 14.5391 2.37533 15.0078 3.18262C15.4831 3.98991 15.7207 5.00553 15.7207 6.22949V9.31543H14.1777V6.02441C14.1777 5.2041 14.0182 4.514 13.6992 3.9541C13.3867 3.39421 12.9701 2.97103 12.4492 2.68457C11.9349 2.39811 11.3717 2.25488 10.7598 2.25488C10.1543 2.25488 9.59115 2.39811 9.07031 2.68457C8.55599 2.97103 8.14258 3.39421 7.83008 3.9541C7.51758 4.514 7.36133 5.2041 7.36133 6.02441V9.31543H5.80859Z" fill="#DEA7A7"/>
</svg>
