<svg width="35" height="36" viewBox="0 0 35 36" fill="none" xmlns="http://www.w3.org/2000/svg">
<path d="M27.875 18.5391C27.875 18.8359 27.7578 19.0977 27.5234 19.3242L19.7305 27.0938C19.5039 27.3125 19.25 27.4219 18.9688 27.4219C18.6797 27.4219 18.4375 27.3242 18.2422 27.1289C18.0469 26.9414 17.9492 26.7031 17.9492 26.4141C17.9492 26.2734 17.9727 26.1406 18.0195 26.0156C18.0664 25.8828 18.1367 25.7695 18.2305 25.6758L20.8555 23.0039L25.5078 18.7734L25.7422 19.3477L21.9688 19.582H7.14453C6.83984 19.582 6.58984 19.4844 6.39453 19.2891C6.20703 19.0938 6.11328 18.8438 6.11328 18.5391C6.11328 18.2344 6.20703 17.9844 6.39453 17.7891C6.58984 17.5938 6.83984 17.4961 7.14453 17.4961H21.9688L25.7422 17.7305L25.5078 18.3164L20.8555 14.0742L18.2305 11.4023C18.1367 11.3086 18.0664 11.1992 18.0195 11.0742C17.9727 10.9414 17.9492 10.8047 17.9492 10.6641C17.9492 10.375 18.0469 10.1367 18.2422 9.94922C18.4375 9.75391 18.6797 9.65625 18.9688 9.65625C19.1094 9.65625 19.2422 9.68359 19.3672 9.73828C19.5 9.79297 19.6289 9.88281 19.7539 10.0078L27.5234 17.7539C27.7578 17.9805 27.875 18.2422 27.875 18.5391Z" fill="#BA2E1C"/>
</svg>
