<svg width="35" height="36" viewBox="0 0 35 36" fill="none" xmlns="http://www.w3.org/2000/svg">
<path d="M31.0938 18.4238C31.0938 18.7949 30.9473 19.1221 30.6543 19.4053L20.9131 29.1172C20.6299 29.3906 20.3125 29.5273 19.9609 29.5273C19.5996 29.5273 19.2969 29.4053 19.0527 29.1611C18.8086 28.9268 18.6865 28.6289 18.6865 28.2676C18.6865 28.0918 18.7158 27.9258 18.7744 27.7695C18.833 27.6035 18.9209 27.4619 19.0381 27.3447L22.3193 24.0049L28.1348 18.7168L28.4277 19.4346L23.7109 19.7275H5.18066C4.7998 19.7275 4.4873 19.6055 4.24316 19.3613C4.00879 19.1172 3.8916 18.8047 3.8916 18.4238C3.8916 18.043 4.00879 17.7305 4.24316 17.4863C4.4873 17.2422 4.7998 17.1201 5.18066 17.1201H23.7109L28.4277 17.4131L28.1348 18.1455L22.3193 12.8428L19.0381 9.50293C18.9209 9.38574 18.833 9.24902 18.7744 9.09277C18.7158 8.92676 18.6865 8.75586 18.6865 8.58008C18.6865 8.21875 18.8086 7.9209 19.0527 7.68652C19.2969 7.44238 19.5996 7.32031 19.9609 7.32031C20.1367 7.32031 20.3027 7.35449 20.459 7.42285C20.625 7.49121 20.7861 7.60352 20.9424 7.75977L30.6543 17.4424C30.9473 17.7256 31.0938 18.0527 31.0938 18.4238Z" fill="#FFFEEF"/>
</svg>
