<svg width="18" height="20" viewBox="0 0 18 20" fill="none" xmlns="http://www.w3.org/2000/svg">
<path d="M9 5.97656C9.19792 5.97656 9.375 6.05208 9.53125 6.20312L15.5781 12.3906C15.6458 12.4583 15.6979 12.5339 15.7344 12.6172C15.7708 12.7057 15.7891 12.7995 15.7891 12.8984C15.7891 13.0339 15.7578 13.1562 15.6953 13.2656C15.6328 13.375 15.5495 13.4609 15.4453 13.5234C15.3359 13.5859 15.2135 13.6172 15.0781 13.6172C14.8802 13.6172 14.7109 13.5495 14.5703 13.4141L8.58594 7.29687H9.42188L3.4375 13.4141C3.29167 13.5495 3.1224 13.6172 2.92969 13.6172C2.79427 13.6172 2.67448 13.5859 2.57031 13.5234C2.46094 13.4609 2.375 13.375 2.3125 13.2656C2.25 13.1562 2.21875 13.0339 2.21875 12.8984C2.21875 12.7057 2.28906 12.5391 2.42969 12.3984L8.47656 6.20312C8.54427 6.13021 8.625 6.07292 8.71875 6.03125C8.80729 5.99479 8.90104 5.97656 9 5.97656Z" fill="#BA2E1C"/>
</svg>
