<svg width="24" height="25" viewBox="0 0 24 25" fill="none" xmlns="http://www.w3.org/2000/svg">
<path d="M2.80273 9.68555C2.80273 8.81966 2.93945 8.02865 3.21289 7.3125C3.49284 6.58984 3.88346 5.96484 4.38477 5.4375C4.88607 4.91016 5.47201 4.50326 6.14258 4.2168C6.81966 3.93034 7.55208 3.78711 8.33984 3.78711C9.24479 3.78711 10.0553 3.98568 10.7715 4.38281C11.4876 4.77995 12.0638 5.30729 12.5 5.96484C12.9427 5.30729 13.5189 4.77995 14.2285 4.38281C14.9447 3.98568 15.7552 3.78711 16.6602 3.78711C17.4544 3.78711 18.1868 3.93034 18.8574 4.2168C19.5345 4.50326 20.1204 4.91016 20.6152 5.4375C21.1165 5.96484 21.5039 6.58984 21.7773 7.3125C22.0573 8.02865 22.1973 8.81966 22.1973 9.68555C22.1973 11.0723 21.8294 12.446 21.0938 13.8066C20.3646 15.1608 19.3262 16.4824 17.9785 17.7715C16.6374 19.054 15.0488 20.2812 13.2129 21.4531C13.1087 21.5182 12.9883 21.5768 12.8516 21.6289C12.7214 21.6875 12.6042 21.7168 12.5 21.7168C12.4023 21.7168 12.2852 21.6875 12.1484 21.6289C12.0182 21.5768 11.901 21.5182 11.7969 21.4531C9.96094 20.2812 8.36914 19.054 7.02148 17.7715C5.67383 16.4824 4.63216 15.1608 3.89648 13.8066C3.16732 12.446 2.80273 11.0723 2.80273 9.68555ZM4.375 9.68555C4.375 10.5905 4.5931 11.5085 5.0293 12.4395C5.46549 13.3639 6.05794 14.2721 6.80664 15.1641C7.55534 16.056 8.40169 16.9089 9.3457 17.7227C10.2962 18.5299 11.2826 19.2721 12.3047 19.9492C12.4089 20.0273 12.474 20.0664 12.5 20.0664C12.526 20.0664 12.5944 20.0273 12.7051 19.9492C13.7272 19.2721 14.7103 18.5299 15.6543 17.7227C16.6048 16.9089 17.4512 16.056 18.1934 15.1641C18.9421 14.2721 19.5345 13.3639 19.9707 12.4395C20.4069 11.5085 20.625 10.5905 20.625 9.68555C20.625 8.81966 20.4525 8.06445 20.1074 7.41992C19.7689 6.76888 19.3001 6.26432 18.7012 5.90625C18.1087 5.54167 17.4349 5.35938 16.6797 5.35938C16.0677 5.35938 15.5404 5.47005 15.0977 5.69141C14.6615 5.90625 14.2839 6.17969 13.9648 6.51172C13.6523 6.83724 13.3854 7.15951 13.1641 7.47852C13.0208 7.66732 12.9036 7.79753 12.8125 7.86914C12.7214 7.94076 12.6172 7.97656 12.5 7.97656C12.3828 7.97656 12.2754 7.94401 12.1777 7.87891C12.0866 7.80729 11.9727 7.67383 11.8359 7.47852C11.6276 7.15299 11.3672 6.82747 11.0547 6.50195C10.7422 6.17643 10.3613 5.90625 9.91211 5.69141C9.46289 5.47005 8.93229 5.35938 8.32031 5.35938C7.5651 5.35938 6.88802 5.54167 6.28906 5.90625C5.69661 6.26432 5.22786 6.76888 4.88281 7.41992C4.54427 8.06445 4.375 8.81966 4.375 9.68555Z" fill="#FFFEEF"/>
</svg>
