<svg width="39" height="38" viewBox="0 0 39 38" fill="none" xmlns="http://www.w3.org/2000/svg">
<path d="M3.98438 14.2969C3.98438 12.9115 4.20312 11.6458 4.64062 10.5C5.08854 9.34375 5.71354 8.34375 6.51562 7.5C7.31771 6.65625 8.25521 6.00521 9.32812 5.54688C10.4115 5.08854 11.5833 4.85938 12.8438 4.85938C14.2917 4.85938 15.5885 5.17708 16.7344 5.8125C17.8802 6.44792 18.8021 7.29167 19.5 8.34375C20.2083 7.29167 21.1302 6.44792 22.2656 5.8125C23.4115 5.17708 24.7083 4.85938 26.1562 4.85938C27.4271 4.85938 28.599 5.08854 29.6719 5.54688C30.7552 6.00521 31.6927 6.65625 32.4844 7.5C33.2865 8.34375 33.9062 9.34375 34.3438 10.5C34.7917 11.6458 35.0156 12.9115 35.0156 14.2969C35.0156 16.5156 34.4271 18.7135 33.25 20.8906C32.0833 23.0573 30.4219 25.1719 28.2656 27.2344C26.1198 29.2865 23.5781 31.25 20.6406 33.125C20.474 33.2292 20.2812 33.3229 20.0625 33.4062C19.8542 33.5 19.6667 33.5469 19.5 33.5469C19.3438 33.5469 19.1562 33.5 18.9375 33.4062C18.7292 33.3229 18.5417 33.2292 18.375 33.125C15.4375 31.25 12.8906 29.2865 10.7344 27.2344C8.57812 25.1719 6.91146 23.0573 5.73438 20.8906C4.56771 18.7135 3.98438 16.5156 3.98438 14.2969ZM6.5 14.2969C6.5 15.7448 6.84896 17.2135 7.54688 18.7031C8.24479 20.1823 9.19271 21.6354 10.3906 23.0625C11.5885 24.4896 12.9427 25.8542 14.4531 27.1562C15.974 28.4479 17.5521 29.6354 19.1875 30.7188C19.3542 30.8438 19.4583 30.9062 19.5 30.9062C19.5417 30.9062 19.651 30.8438 19.8281 30.7188C21.4635 29.6354 23.0365 28.4479 24.5469 27.1562C26.0677 25.8542 27.4219 24.4896 28.6094 23.0625C29.8073 21.6354 30.7552 20.1823 31.4531 18.7031C32.151 17.2135 32.5 15.7448 32.5 14.2969C32.5 12.9115 32.224 11.7031 31.6719 10.6719C31.1302 9.63021 30.3802 8.82292 29.4219 8.25C28.474 7.66667 27.3958 7.375 26.1875 7.375C25.2083 7.375 24.3646 7.55208 23.6562 7.90625C22.9583 8.25 22.3542 8.6875 21.8438 9.21875C21.3438 9.73958 20.9167 10.2552 20.5625 10.7656C20.3333 11.0677 20.1458 11.276 20 11.3906C19.8542 11.5052 19.6875 11.5625 19.5 11.5625C19.3125 11.5625 19.1406 11.5104 18.9844 11.4062C18.8385 11.2917 18.6562 11.0781 18.4375 10.7656C18.1042 10.2448 17.6875 9.72396 17.1875 9.20312C16.6875 8.68229 16.0781 8.25 15.3594 7.90625C14.6406 7.55208 13.7917 7.375 12.8125 7.375C11.6042 7.375 10.5208 7.66667 9.5625 8.25C8.61458 8.82292 7.86458 9.63021 7.3125 10.6719C6.77083 11.7031 6.5 12.9115 6.5 14.2969Z" fill="#731104"/>
</svg>
