<svg width="28" height="26" viewBox="0 0 28 26" fill="none" xmlns="http://www.w3.org/2000/svg">
<path d="M4.02734 25.6016C2.81641 25.6016 1.90625 25.2969 1.29688 24.6875C0.695312 24.0781 0.394531 23.1602 0.394531 21.9336V4.15625C0.394531 2.9375 0.695312 2.01953 1.29688 1.40234C1.90625 0.785156 2.81641 0.476562 4.02734 0.476562H16.4727C17.6836 0.476562 18.5898 0.785156 19.1914 1.40234C19.8008 2.01953 20.1055 2.9375 20.1055 4.15625V9.58203H18.2188V4.19141C18.2188 3.60547 18.0625 3.15625 17.75 2.84375C17.4453 2.52344 16.9883 2.36328 16.3789 2.36328H4.12109C3.51172 2.36328 3.05078 2.52344 2.73828 2.84375C2.43359 3.15625 2.28125 3.60547 2.28125 4.19141V21.8984C2.28125 22.4844 2.43359 22.9336 2.73828 23.2461C3.05078 23.5586 3.51172 23.7148 4.12109 23.7148H16.3789C16.9883 23.7148 17.4453 23.5586 17.75 23.2461C18.0625 22.9336 18.2188 22.4844 18.2188 21.8984V16.4961H20.1055V21.9336C20.1055 23.1602 19.8008 24.0781 19.1914 24.6875C18.5898 25.2969 17.6836 25.6016 16.4727 25.6016H4.02734ZM11.2344 13.9648C10.9922 13.9648 10.7812 13.875 10.6016 13.6953C10.4219 13.5078 10.332 13.2891 10.332 13.0391C10.332 12.7891 10.4219 12.5703 10.6016 12.3828C10.7812 12.1953 10.9922 12.1016 11.2344 12.1016H23.2695L25.0273 12.1836L24.1953 11.3867L22.3086 9.60547C22.1211 9.44141 22.0273 9.22656 22.0273 8.96094C22.0273 8.71875 22.1016 8.51953 22.25 8.36328C22.4062 8.19922 22.6055 8.11719 22.8477 8.11719C23.0742 8.11719 23.2812 8.21094 23.4688 8.39844L27.2891 12.3594C27.4062 12.4766 27.4844 12.5898 27.5234 12.6992C27.5703 12.8086 27.5938 12.9219 27.5938 13.0391C27.5938 13.1562 27.5703 13.2695 27.5234 13.3789C27.4844 13.4883 27.4062 13.6016 27.2891 13.7188L23.4688 17.6797C23.2812 17.8594 23.0742 17.9492 22.8477 17.9492C22.6055 17.9492 22.4062 17.8672 22.25 17.7031C22.1016 17.5391 22.0273 17.3359 22.0273 17.0938C22.0273 16.8359 22.1211 16.625 22.3086 16.4609L24.1953 14.6914L25.0273 13.8945L23.2695 13.9648H11.2344Z" fill="#731104"/>
</svg>
