<svg width="19" height="19" viewBox="0 0 19 19" fill="none" xmlns="http://www.w3.org/2000/svg">
<path d="M3.35742 18.6582C1.76237 18.6582 0.964844 18.1374 0.964844 17.0957C0.964844 16.4577 1.16016 15.7773 1.55078 15.0547C1.94141 14.332 2.50456 13.6517 3.24023 13.0137C3.98242 12.3691 4.8776 11.8451 5.92578 11.4414C6.98047 11.0378 8.17188 10.8359 9.5 10.8359C10.8216 10.8359 12.0065 11.0378 13.0547 11.4414C14.1094 11.8451 15.0046 12.3691 15.7402 13.0137C16.4824 13.6517 17.0488 14.332 17.4395 15.0547C17.8301 15.7773 18.0254 16.4577 18.0254 17.0957C18.0254 18.1374 17.2279 18.6582 15.6328 18.6582H3.35742ZM2.89844 17.1836H16.1016C16.2253 17.1836 16.3132 17.1641 16.3652 17.125C16.4238 17.0859 16.4531 17.0143 16.4531 16.9102C16.4531 16.513 16.3001 16.054 15.9941 15.5332C15.6947 15.0059 15.2487 14.498 14.6562 14.0098C14.0638 13.5215 13.3346 13.1178 12.4688 12.7988C11.6094 12.4733 10.6198 12.3105 9.5 12.3105C8.38021 12.3105 7.38737 12.4733 6.52148 12.7988C5.6556 13.1178 4.92643 13.5215 4.33398 14.0098C3.74154 14.498 3.29232 15.0059 2.98633 15.5332C2.68685 16.054 2.53711 16.513 2.53711 16.9102C2.53711 17.0143 2.56315 17.0859 2.61523 17.125C2.67383 17.1641 2.76823 17.1836 2.89844 17.1836ZM9.5 9.625C8.72526 9.625 8.01888 9.41992 7.38086 9.00977C6.74284 8.5931 6.23177 8.03971 5.84766 7.34961C5.47005 6.65299 5.28125 5.88802 5.28125 5.05469C5.28125 4.22786 5.47005 3.47591 5.84766 2.79883C6.23177 2.12174 6.74284 1.58138 7.38086 1.17773C8.01888 0.774089 8.72526 0.572266 9.5 0.572266C10.2812 0.572266 10.9909 0.770833 11.6289 1.16797C12.2669 1.5651 12.7747 2.10221 13.1523 2.7793C13.5299 3.44987 13.7188 4.20182 13.7188 5.03516C13.7188 5.875 13.5267 6.64323 13.1426 7.33984C12.765 8.02995 12.2572 8.58333 11.6191 9C10.9811 9.41667 10.2747 9.625 9.5 9.625ZM9.5 8.15039C9.98177 8.15039 10.4212 8.01042 10.8184 7.73047C11.222 7.45052 11.5443 7.07617 11.7852 6.60742C12.026 6.13216 12.1465 5.60807 12.1465 5.03516C12.1465 4.46875 12.026 3.96094 11.7852 3.51172C11.5508 3.05599 11.2318 2.69792 10.8281 2.4375C10.431 2.17708 9.98828 2.04688 9.5 2.04688C9.01823 2.04688 8.57552 2.18034 8.17188 2.44727C7.77474 2.71419 7.45573 3.07552 7.21484 3.53125C6.97396 3.98047 6.85352 4.48828 6.85352 5.05469C6.85352 5.6276 6.97396 6.14844 7.21484 6.61719C7.46224 7.08594 7.78451 7.46029 8.18164 7.74023C8.58529 8.01367 9.02474 8.15039 9.5 8.15039Z" fill="#FFFEEF"/>
</svg>
