<svg width="23" height="27" viewBox="0 0 23 27" fill="none" xmlns="http://www.w3.org/2000/svg">
<path d="M6.35547 5.80859V3.18359C6.35547 2.33984 6.61328 1.67578 7.12891 1.19141C7.65234 0.699219 8.36328 0.453125 9.26172 0.453125H13.7148C14.6133 0.453125 15.3203 0.699219 15.8359 1.19141C16.3594 1.67578 16.6211 2.33984 16.6211 3.18359V5.80859H14.7578V3.30078C14.7578 2.97266 14.6484 2.70703 14.4297 2.50391C14.2188 2.30078 13.9375 2.19922 13.5859 2.19922H9.39062C9.03906 2.19922 8.75391 2.30078 8.53516 2.50391C8.32422 2.70703 8.21875 2.97266 8.21875 3.30078V5.80859H6.35547ZM1.03516 6.74609C0.800781 6.74609 0.59375 6.66016 0.414062 6.48828C0.242188 6.30859 0.15625 6.09766 0.15625 5.85547C0.15625 5.62109 0.242188 5.41797 0.414062 5.24609C0.59375 5.06641 0.800781 4.97656 1.03516 4.97656H21.9766C22.2109 4.97656 22.4141 5.0625 22.5859 5.23438C22.7578 5.40625 22.8438 5.61328 22.8438 5.85547C22.8438 6.09766 22.7578 6.30859 22.5859 6.48828C22.4219 6.66016 22.2188 6.74609 21.9766 6.74609H1.03516ZM6.13281 26.5508C5.28906 26.5508 4.60547 26.3008 4.08203 25.8008C3.56641 25.3086 3.28906 24.6406 3.25 23.7969L2.41797 6.52344H4.25781L5.08984 23.5859C5.10547 23.9297 5.22656 24.2148 5.45312 24.4414C5.67969 24.668 5.96094 24.7812 6.29688 24.7812H16.6914C17.0352 24.7812 17.3203 24.668 17.5469 24.4414C17.7734 24.2227 17.8945 23.9375 17.9102 23.5859L18.6953 6.52344H20.582L19.7617 23.7852C19.7227 24.6289 19.4414 25.3008 18.918 25.8008C18.3945 26.3008 17.7148 26.5508 16.8789 26.5508H6.13281ZM8.03125 22.7773C7.8125 22.7773 7.63672 22.7148 7.50391 22.5898C7.37109 22.4648 7.30078 22.2969 7.29297 22.0859L6.94141 9.55859C6.93359 9.35547 6.99609 9.19141 7.12891 9.06641C7.26953 8.93359 7.44922 8.86719 7.66797 8.86719C7.87891 8.86719 8.05078 8.92969 8.18359 9.05469C8.32422 9.17969 8.39453 9.34375 8.39453 9.54688L8.75781 22.0859C8.75781 22.2891 8.69141 22.457 8.55859 22.5898C8.42578 22.7148 8.25 22.7773 8.03125 22.7773ZM11.5 22.7773C11.2812 22.7773 11.1016 22.7148 10.9609 22.5898C10.8203 22.457 10.75 22.2891 10.75 22.0859V9.55859C10.75 9.35547 10.8203 9.19141 10.9609 9.06641C11.1016 8.93359 11.2812 8.86719 11.5 8.86719C11.7266 8.86719 11.9102 8.93359 12.0508 9.06641C12.1914 9.19141 12.2617 9.35547 12.2617 9.55859V22.0859C12.2617 22.2891 12.1914 22.457 12.0508 22.5898C11.9102 22.7148 11.7266 22.7773 11.5 22.7773ZM14.9805 22.7773C14.7539 22.7773 14.5742 22.7148 14.4414 22.5898C14.3086 22.457 14.2461 22.2891 14.2539 22.0859L14.6055 9.55859C14.6133 9.34766 14.6836 9.17969 14.8164 9.05469C14.9492 8.92969 15.1211 8.86719 15.332 8.86719C15.5586 8.86719 15.7383 8.93359 15.8711 9.06641C16.0039 9.19141 16.0664 9.35547 16.0586 9.55859L15.707 22.0859C15.6992 22.2969 15.6289 22.4648 15.4961 22.5898C15.3633 22.7148 15.1914 22.7773 14.9805 22.7773Z" fill="#731104"/>
</svg>
