<svg width="19" height="20" viewBox="0 0 19 20" fill="none" xmlns="http://www.w3.org/2000/svg">
<path d="M0.511719 19.0391C0.371094 18.9062 0.277344 18.75 0.230469 18.5703C0.191406 18.3906 0.195312 18.2109 0.242188 18.0312C0.289062 17.8516 0.378906 17.6953 0.511719 17.5625L8.01172 10.0508L0.511719 2.55078C0.378906 2.41797 0.289062 2.26172 0.242188 2.08203C0.203125 1.90234 0.203125 1.72266 0.242188 1.54297C0.289062 1.36328 0.378906 1.20703 0.511719 1.07422C0.644531 0.933594 0.800781 0.84375 0.980469 0.804688C1.16016 0.757812 1.33984 0.757812 1.51953 0.804688C1.70703 0.84375 1.86719 0.933594 2 1.07422L9.5 8.57422L17 1.07422C17.1328 0.933594 17.2891 0.84375 17.4688 0.804688C17.6484 0.757812 17.8281 0.757812 18.0078 0.804688C18.1875 0.84375 18.3477 0.933594 18.4883 1.07422C18.6211 1.20703 18.7109 1.36328 18.7578 1.54297C18.8047 1.72266 18.8047 1.90234 18.7578 2.08203C18.7109 2.26172 18.6211 2.41797 18.4883 2.55078L10.9883 10.0508L18.4883 17.5625C18.6211 17.6953 18.707 17.8516 18.7461 18.0312C18.793 18.2109 18.793 18.3906 18.7461 18.5703C18.707 18.75 18.6211 18.9062 18.4883 19.0391C18.3555 19.1797 18.1953 19.2695 18.0078 19.3086C17.8281 19.3555 17.6484 19.3555 17.4688 19.3086C17.2891 19.2617 17.1328 19.1719 17 19.0391L9.5 11.5391L2 19.0391C1.86719 19.1719 1.71094 19.2617 1.53125 19.3086C1.35156 19.3555 1.17188 19.3555 0.992188 19.3086C0.8125 19.2617 0.652344 19.1719 0.511719 19.0391Z" fill="#2C2C2C"/>
</svg>
