<svg width="213" height="158" viewBox="0 0 213 158" fill="none" xmlns="http://www.w3.org/2000/svg">
<path d="M1 157C10.4423 145.976 18.5752 137.574 27.5021 130.409C52.9737 109.965 90.8634 106.665 110.256 80.384V80.384L113.99 75.0412C115.501 72.8797 117.972 71.592 120.61 71.592V71.592C122.1 71.592 123.561 72.0042 124.831 72.7831L130.333 76.1565C131.493 76.8676 132.827 77.244 134.187 77.244H135.015C137.753 77.244 140.172 75.4624 140.984 72.848V72.848M140.984 72.848L139.381 71.0335C137.512 68.9187 135.21 67.2313 132.631 66.0862L131.177 65.4406C128.235 64.1342 124.948 63.818 121.81 64.5393L121.188 64.6824C119.387 65.0966 117.704 65.9176 116.268 67.0825V67.0825C113.937 68.9745 112.39 71.6647 111.93 74.6317L110.655 82.8379C110.389 84.5488 110.256 86.2775 110.256 88.0089V98.824C110.256 102.016 109.999 105.203 109.489 108.354L108.806 112.574C108.183 116.416 106.916 120.125 105.057 123.544L103.673 126.09C102.607 128.05 101.904 130.186 101.596 132.395L101.282 134.649C100.696 138.85 102.065 143.087 104.997 146.152V146.152C106.868 148.108 109.271 149.473 111.91 150.08L116.554 151.148C120.728 152.107 125.06 152.156 129.254 151.29L132.245 150.672C137.124 149.665 141.797 147.832 146.06 145.252L150.238 142.724C151.804 141.777 153.279 140.686 154.644 139.467L155.41 138.783C161.22 133.592 164.542 126.17 164.542 118.378V118.378L166.249 106.132V105.33C166.249 99.3742 164.062 93.6258 160.104 89.176V89.176L155.282 83.5327C153.575 81.5346 151.079 80.384 148.451 80.384H147.803C146.473 80.384 145.171 80.7733 144.059 81.5038V81.5038C142.14 82.7647 140.984 84.907 140.984 87.2035V92.944V106.132V112.636C140.984 116.385 139.907 120.055 137.88 123.208L133.15 130.571C132.5 131.582 131.38 132.194 130.177 132.194V132.194C128.226 132.194 126.644 130.612 126.644 128.661V125.385C126.644 124.49 126.82 123.605 127.162 122.779L132.107 110.842L136.545 100.166L138.431 94.3841C139.218 91.9738 139.618 89.4545 139.618 86.9192V86.7786C139.618 84.6195 139.315 82.4712 138.718 80.3964L138.537 79.7687C137.246 75.2813 134.506 71.3474 130.745 68.5801V68.5801C128.933 67.2472 126.92 66.2118 124.783 65.5127L118.776 63.5485C114.701 62.216 110.495 61.3201 106.231 60.8761L98.926 60.1156C96.0179 59.8128 93.085 59.8358 90.182 60.184L80.7258 61.3183C79.4972 61.4657 78.3359 61.9599 77.3778 62.7432V62.7432C74.7388 64.9005 74.2084 68.7273 76.1613 71.5211L77.6771 73.6897C78.3988 74.7222 78.5104 76.0627 77.9692 77.2003V77.2003C77.1344 78.9551 75.0304 79.6946 73.2813 78.8479L71.6305 78.0489C70.5535 77.5276 69.6834 76.6585 69.1609 75.582L63.2783 63.4634C62.0633 60.9604 61.432 58.2144 61.432 55.4322V55.4322C61.432 51.258 62.852 47.2079 65.4587 43.9476L65.9197 43.371C68.554 40.0761 72.1409 37.6743 76.1907 36.4933L78.6066 35.7888C82.1458 34.7568 85.8518 34.4223 89.5186 34.8041L95.0244 35.3773C99.677 35.8617 104.203 37.1884 108.38 39.2924L111.215 40.7202C114.627 42.4384 117.598 44.9174 119.9 47.9658L124.352 53.8612C124.732 54.364 124.937 54.9768 124.937 55.6069V55.6069C124.937 57.5939 122.982 58.991 121.102 58.3477L110.256 54.636L100.354 50.554L96.4167 49.2128C92.9769 48.0411 89.263 47.9382 85.7636 48.9177L76.6861 51.4585C75.9125 51.6751 75.0825 51.45 74.5242 50.8724V50.8724C73.5746 49.8899 73.7485 48.2869 74.8867 47.5309L77.6102 45.7219C78.4153 45.1872 79.3602 44.902 80.3266 44.902H86.6174C88.2603 44.902 89.8994 45.0592 91.5123 45.3715L102.061 47.414L112.646 50.554L116.28 51.9865C118.287 52.7777 120.568 51.9198 121.556 50.0017V50.0017C122.357 48.4451 122.11 46.5545 120.934 45.257L114.162 37.7837C113.155 36.6719 112.018 35.685 110.775 34.8442L94.5502 23.864L88.6256 19.406C87.6265 18.6542 87.0388 17.4765 87.0388 16.2262V16.2262C87.0388 14.1546 88.6281 12.4295 90.6927 12.26L104.312 11.1417C105.54 11.0408 106.775 11.0609 108 11.2017L109.039 11.3212C115.995 12.1208 122.438 15.3734 127.211 20.4951L132.107 25.748L138.305 34.2988C139.178 35.5035 139.935 36.789 140.563 38.1377L141.955 41.1243C143.1 43.5815 143.45 46.3346 142.957 49.0002L141.562 56.5342C141.227 58.3456 139.647 59.66 137.805 59.66V59.66C136.059 59.66 134.536 58.477 134.103 56.7859L132.488 50.4737C132.235 49.4845 132.107 48.4674 132.107 47.4464V41.7179C132.107 39.4948 132.767 37.3217 134.003 35.474V35.474C134.557 34.6457 135.219 33.8949 135.972 33.2413L136.246 33.0031C139.259 30.3861 143.249 29.1856 147.206 29.7055L151.495 30.269C154.022 30.601 156.459 31.4296 158.665 32.7071L163.155 35.307C164.053 35.8268 164.747 36.6369 165.122 37.6037V37.6037C165.802 39.3542 165.34 41.3424 163.958 42.6136L155.324 50.554L150.283 56.1439C145.961 60.9376 142.781 66.6487 140.984 72.848V72.848ZM140.984 72.848C143.167 73.9954 145.529 74.6515 147.471 75.0032M147.471 75.0032C147.698 75.0444 147.919 75.0813 148.134 75.1144C149.762 75.3654 151.226 74.2955 151.727 72.7269V72.7269C152.24 71.124 151.633 69.3751 150.238 68.4341L149.44 67.896C148.286 67.1174 146.748 67.2332 145.723 68.1758V68.1758C144.584 69.2233 144.426 70.9642 145.357 72.1998L147.471 75.0032ZM155.324 77.244L166.249 80.384L177.541 84.7457C181.386 86.231 185.093 88.0526 188.618 90.1894L194.89 93.9906C197.177 95.3771 199.226 97.1233 200.958 99.1619L203.266 101.879C205.598 104.625 206.879 108.11 206.879 111.712V111.712C206.879 115.96 205.099 120.015 201.972 122.89L196.694 127.745C195.748 128.615 194.704 129.37 193.582 129.997L193.083 130.275C188.491 132.839 182.907 132.881 178.277 130.385L176.514 129.434C176.048 129.183 175.631 128.849 175.283 128.45L174.976 128.096C173.855 126.808 173.737 124.929 174.686 123.511V123.511C175.388 122.462 176.567 121.832 177.829 121.832H183.32V121.832C185.29 121.832 186.325 119.496 185.003 118.037L183.556 116.44C183.399 116.267 183.224 116.112 183.034 115.977L177.574 112.096C176.399 111.261 175.287 110.34 174.248 109.341V109.341C170.357 105.6 167.579 100.855 166.22 95.6307L165.556 93.0767C164.887 90.5039 163.695 88.0969 162.053 86.0062L160.777 84.3818C160.331 83.8137 159.796 83.3218 159.192 82.9252V82.9252C156.865 81.3967 155.738 78.5563 156.353 75.8413V75.8413C156.781 73.9505 158.006 72.3164 159.709 71.3886L163.559 69.2903C165.337 68.3211 167.279 67.6887 169.287 67.4249L175.809 66.568H184.602C185.34 66.568 186.076 66.6291 186.804 66.7508L192.183 67.6503C192.839 67.7599 193.407 68.1653 193.725 68.7494V68.7494C194.461 70.1027 193.584 71.7692 192.052 71.9302L183.32 72.848H173.078H165.173C164.76 72.848 164.353 72.9551 163.993 73.1589V73.1589C162.328 74.1008 162.383 76.5168 164.089 77.3821L169.545 80.1506C169.851 80.3059 170.17 80.4331 170.499 80.5307L180.589 83.524L188.442 85.408L195.27 86.978L203.085 88.9129C203.785 89.0863 204.44 89.407 205.007 89.8536L206.564 91.0815C207.876 92.1151 209.773 91.9063 210.829 90.6124V90.6124C211.549 89.7295 211.718 88.5197 211.269 87.4728L207.437 78.5445C207.065 77.6787 206.63 76.8416 206.135 76.04L200.92 67.5991C199.237 64.8756 196.809 62.6919 193.923 61.307V61.307C191.663 60.2228 189.189 59.66 186.683 59.66H180.06C177.245 59.66 174.448 60.1153 171.778 61.0082L165.99 62.9438C165.045 63.26 164.028 63.2991 163.061 63.0565V63.0565C159.913 62.2669 158.238 58.8289 159.558 55.8635L159.627 55.707C159.941 55.0013 160.404 54.3716 160.983 53.8609L164.427 50.8257C166.983 48.5725 169.079 45.8458 170.599 42.7959L175.809 32.342L179.18 24.8122C180.117 22.7191 180.835 20.5376 181.424 18.3214C181.694 17.3082 181.976 16.3456 182.331 15.2841C182.94 13.4633 183.382 11.5825 183.448 9.66369C183.518 7.61672 183.515 5.94235 183.406 3.89457C183.359 3.00656 182.956 2.17657 182.301 1.57461V1.57461C181.265 0.621546 179.705 0.306614 178.542 1.0992C177.453 1.84088 176.649 2.81459 175.809 4.71C174.583 8.15436 174.513 10.4631 175.236 13.741C175.563 15.2277 176.454 16.5223 177.649 17.4648V17.4648C179.491 18.9161 181.926 19.372 184.168 18.6849L184.569 18.5618C185.326 18.3299 186.043 17.9863 186.698 17.5425L191.45 14.3226C191.917 14.0058 192.197 13.4777 192.197 12.9129V12.9129C192.197 11.3943 190.36 10.6352 189.288 11.7107L188.99 12.0104C188.639 12.3624 188.442 12.8391 188.442 13.336V18.6869C188.442 20.6437 188.917 22.5712 189.826 24.3038L192.185 28.7964C192.822 30.0111 194.081 30.772 195.453 30.772H196.295C197.498 30.772 198.546 29.9515 198.834 28.7836L198.944 28.3412C199.408 26.464 197.559 24.8461 195.76 25.5551V25.5551C195.437 25.6822 195.147 25.878 194.908 26.129L183.32 38.308L173.356 48.6943C173.171 48.8868 173.01 49.1003 172.875 49.3305L172.157 50.5564C170.819 52.8423 173.03 55.5655 175.542 54.7254V54.7254C175.72 54.6659 175.891 54.5892 176.054 54.4962L185.71 48.984L193.222 44.902L203.826 38.502C204.038 38.3742 204.219 38.2015 204.356 37.996V37.996C205.225 36.697 204.013 35.0168 202.506 35.4325L200.613 35.9546C200.243 36.0567 199.903 36.2455 199.62 36.5054L196.821 39.0796C195.833 39.9887 195.27 41.2702 195.27 42.6132V42.6132C195.27 45.2646 197.42 47.414 200.071 47.414H201.62C202.164 47.414 202.707 47.3439 203.234 47.2055L210.67 45.2515C211.454 45.0456 212 44.3371 212 43.5268V43.5268C212 42.1693 210.544 41.3096 209.355 41.9654L206.879 43.332L185.71 54.636" stroke="#FFFEEF"/>
</svg>
