<svg width="24" height="25" viewBox="0 0 24 25" fill="none" xmlns="http://www.w3.org/2000/svg">
<path d="M8.41602 17.9961C7.70638 17.9961 7.16276 17.7943 6.78516 17.3906C6.40755 16.987 6.16667 16.4368 6.0625 15.7402L4.5 5.01758H1.19922C1.00391 5.01758 0.834635 4.94596 0.691406 4.80273C0.548177 4.65299 0.476562 4.47721 0.476562 4.27539C0.476562 4.08008 0.548177 3.91081 0.691406 3.76758C0.834635 3.61784 1.00391 3.54297 1.19922 3.54297H4.62695C5.12826 3.54297 5.4668 3.63737 5.64258 3.82617C5.82487 4.01497 5.94206 4.29818 5.99414 4.67578L7.5957 15.5449C7.63477 15.8444 7.73893 16.0853 7.9082 16.2676C8.08398 16.4434 8.30859 16.5312 8.58203 16.5312H19.8125C20.0013 16.5312 20.1673 16.6029 20.3105 16.7461C20.4538 16.8828 20.5254 17.0553 20.5254 17.2637C20.5254 17.472 20.4538 17.6478 20.3105 17.791C20.1673 17.9277 20.0013 17.9961 19.8125 17.9961H8.41602ZM6.61914 14.5195L6.59961 13.0547H19.6855C19.972 13.0547 20.1966 12.9668 20.3594 12.791C20.5221 12.6087 20.623 12.3678 20.6621 12.0684L21.3555 7.39062H5.7793L5.76953 5.91602H22.127C22.3939 5.91602 22.6087 5.99089 22.7715 6.14062C22.9342 6.28385 23.0156 6.47266 23.0156 6.70703C23.0156 6.7526 23.0124 6.8112 23.0059 6.88281C22.9993 6.94792 22.9896 7.01302 22.9766 7.07812L22.1953 12.2441C22.0911 12.9473 21.8503 13.5039 21.4727 13.9141C21.0951 14.3177 20.5482 14.5195 19.832 14.5195H6.61914ZM9.1875 22.7422C8.88802 22.7422 8.61784 22.6706 8.37695 22.5273C8.14258 22.3906 7.95378 22.2018 7.81055 21.9609C7.66732 21.7201 7.5957 21.4531 7.5957 21.1602C7.5957 20.8672 7.66732 20.6003 7.81055 20.3594C7.95378 20.1185 8.14258 19.9264 8.37695 19.7832C8.61784 19.6465 8.88802 19.5781 9.1875 19.5781C9.6237 19.5781 9.99479 19.7311 10.3008 20.0371C10.6133 20.3431 10.7695 20.7174 10.7695 21.1602C10.7695 21.6029 10.6133 21.9772 10.3008 22.2832C9.99479 22.5892 9.6237 22.7422 9.1875 22.7422ZM18.3184 22.7422C17.8822 22.7422 17.5078 22.5892 17.1953 22.2832C16.8828 21.9772 16.7266 21.6029 16.7266 21.1602C16.7266 20.8672 16.7982 20.6003 16.9414 20.3594C17.0846 20.1185 17.2767 19.9264 17.5176 19.7832C17.7585 19.6465 18.0254 19.5781 18.3184 19.5781C18.7611 19.5781 19.1354 19.7311 19.4414 20.0371C19.7539 20.3431 19.9102 20.7174 19.9102 21.1602C19.9102 21.6029 19.7539 21.9772 19.4414 22.2832C19.1354 22.5892 18.7611 22.7422 18.3184 22.7422Z" fill="#BA2E1C"/>
</svg>
