<svg width="27" height="30" viewBox="0 0 27 30" fill="none" xmlns="http://www.w3.org/2000/svg">
<path d="M11.0391 25.3867C10.5781 25.3867 10.1719 25.1602 9.82031 24.707L3.73828 16.9609C3.62109 16.8203 3.53516 16.6797 3.48047 16.5391C3.42578 16.3906 3.39844 16.2461 3.39844 16.1055C3.39844 15.7852 3.50391 15.5234 3.71484 15.3203C3.92578 15.1094 4.19531 15.0039 4.52344 15.0039C4.91406 15.0039 5.25 15.1953 5.53125 15.5781L10.9922 22.7266L21.5156 5.95703C21.6562 5.73828 21.8008 5.58594 21.9492 5.5C22.0977 5.40625 22.2891 5.35938 22.5234 5.35938C22.8438 5.35938 23.1016 5.45703 23.2969 5.65234C23.4922 5.84766 23.5898 6.10547 23.5898 6.42578C23.5898 6.56641 23.5664 6.70703 23.5195 6.84766C23.4727 6.98047 23.3984 7.12891 23.2969 7.29297L12.2227 24.7305C11.9336 25.168 11.5391 25.3867 11.0391 25.3867Z" fill="#731104"/>
</svg>
