<svg width="25" height="30" viewBox="0 0 25 30" fill="none" xmlns="http://www.w3.org/2000/svg">
<path d="M3.51172 24.0391C3.37109 23.9062 3.27734 23.75 3.23047 23.5703C3.19141 23.3906 3.19531 23.2109 3.24219 23.0312C3.28906 22.8516 3.37891 22.6953 3.51172 22.5625L11.0117 15.0508L3.51172 7.55078C3.37891 7.41797 3.28906 7.26172 3.24219 7.08203C3.20312 6.90234 3.20312 6.72266 3.24219 6.54297C3.28906 6.36328 3.37891 6.20703 3.51172 6.07422C3.64453 5.93359 3.80078 5.84375 3.98047 5.80469C4.16016 5.75781 4.33984 5.75781 4.51953 5.80469C4.70703 5.84375 4.86719 5.93359 5 6.07422L12.5 13.5742L20 6.07422C20.1328 5.93359 20.2891 5.84375 20.4688 5.80469C20.6484 5.75781 20.8281 5.75781 21.0078 5.80469C21.1875 5.84375 21.3477 5.93359 21.4883 6.07422C21.6211 6.20703 21.7109 6.36328 21.7578 6.54297C21.8047 6.72266 21.8047 6.90234 21.7578 7.08203C21.7109 7.26172 21.6211 7.41797 21.4883 7.55078L13.9883 15.0508L21.4883 22.5625C21.6211 22.6953 21.707 22.8516 21.7461 23.0312C21.793 23.2109 21.793 23.3906 21.7461 23.5703C21.707 23.75 21.6211 23.9062 21.4883 24.0391C21.3555 24.1797 21.1953 24.2695 21.0078 24.3086C20.8281 24.3555 20.6484 24.3555 20.4688 24.3086C20.2891 24.2617 20.1328 24.1719 20 24.0391L12.5 16.5391L5 24.0391C4.86719 24.1719 4.71094 24.2617 4.53125 24.3086C4.35156 24.3555 4.17188 24.3555 3.99219 24.3086C3.8125 24.2617 3.65234 24.1719 3.51172 24.0391Z" fill="#2C2C2C"/>
</svg>
