<svg width="19" height="20" viewBox="0 0 19 20" fill="none" xmlns="http://www.w3.org/2000/svg">
<path d="M9.5 14.0234C9.30208 14.0234 9.125 13.9479 8.96875 13.7969L2.92188 7.60938C2.85417 7.54167 2.80208 7.46615 2.76562 7.38281C2.72917 7.29427 2.71094 7.20052 2.71094 7.10156C2.71094 6.96615 2.74219 6.84375 2.80469 6.73438C2.86719 6.625 2.95052 6.53906 3.05469 6.47656C3.16406 6.41406 3.28646 6.38281 3.42188 6.38281C3.61979 6.38281 3.78906 6.45052 3.92969 6.58594L9.91406 12.7031H9.07812L15.0625 6.58594C15.2083 6.45052 15.3776 6.38281 15.5703 6.38281C15.7057 6.38281 15.8255 6.41406 15.9297 6.47656C16.0391 6.53906 16.125 6.625 16.1875 6.73438C16.25 6.84375 16.2812 6.96615 16.2812 7.10156C16.2812 7.29427 16.2109 7.46094 16.0703 7.60156L10.0234 13.7969C9.95573 13.8698 9.875 13.9271 9.78125 13.9688C9.69271 14.0052 9.59896 14.0234 9.5 14.0234Z" fill="#BA2E1C"/>
</svg>
