<svg width="24" height="20" viewBox="0 0 24 20" fill="none" xmlns="http://www.w3.org/2000/svg">
<path d="M5.26172 19.543L7.16016 17.6562H22.1719C22.4297 17.6562 22.6484 17.75 22.8281 17.9375C23.0156 18.125 23.1094 18.3477 23.1094 18.6055C23.1094 18.8633 23.0156 19.082 22.8281 19.2617C22.6484 19.4492 22.4297 19.543 22.1719 19.543H5.26172ZM4.08984 18.4648L1.38281 19.5078C1.24219 19.5625 1.11328 19.5273 0.996094 19.4023C0.886719 19.2852 0.859375 19.1562 0.914062 19.0156L2.02734 16.4141L14.8242 3.62891L16.875 5.69141L4.08984 18.4648ZM17.9062 4.68359L15.832 2.62109L17.0156 1.44922C17.3125 1.16016 17.6133 1.00391 17.918 0.980469C18.2305 0.957031 18.5195 1.07812 18.7852 1.34375L19.1836 1.74219C19.4492 2.01562 19.5742 2.30469 19.5586 2.60938C19.543 2.91406 19.3867 3.21875 19.0898 3.52344L17.9062 4.68359Z" fill="#731104"/>
</svg>
