<svg width="33" height="30" viewBox="0 0 33 30" fill="none" xmlns="http://www.w3.org/2000/svg">
<path d="M16.5 29.5469C16.3438 29.5469 16.1562 29.5 15.9375 29.4062C15.7292 29.3229 15.5417 29.2292 15.375 29.125C12.4375 27.25 9.89062 25.2865 7.73438 23.2344C5.57812 21.1719 3.91146 19.0573 2.73438 16.8906C1.56771 14.7135 0.984375 12.5156 0.984375 10.2969C0.984375 8.91146 1.20312 7.64583 1.64062 6.5C2.08854 5.34375 2.70833 4.34375 3.5 3.5C4.29167 2.65625 5.21354 2.00521 6.26562 1.54688C7.31771 1.08854 8.45833 0.859375 9.6875 0.859375C11.2188 0.859375 12.5625 1.25 13.7188 2.03125C14.875 2.8125 15.8021 3.84375 16.5 5.125C17.2083 3.83333 18.1406 2.80208 19.2969 2.03125C20.4531 1.25 21.7917 0.859375 23.3125 0.859375C24.5417 0.859375 25.6823 1.08854 26.7344 1.54688C27.7969 2.00521 28.7188 2.65625 29.5 3.5C30.2917 4.34375 30.9062 5.34375 31.3438 6.5C31.7917 7.64583 32.0156 8.91146 32.0156 10.2969C32.0156 12.5156 31.4271 14.7135 30.25 16.8906C29.0833 19.0573 27.4219 21.1719 25.2656 23.2344C23.1198 25.2865 20.5781 27.25 17.6406 29.125C17.474 29.2292 17.2812 29.3229 17.0625 29.4062C16.8542 29.5 16.6667 29.5469 16.5 29.5469Z" fill="#731104"/>
</svg>
