<svg width="23" height="24" viewBox="0 0 23 24" fill="none" xmlns="http://www.w3.org/2000/svg">
<path d="M5.35742 21.1582C3.76237 21.1582 2.96484 20.6374 2.96484 19.5957C2.96484 18.9577 3.16016 18.2773 3.55078 17.5547C3.94141 16.832 4.50456 16.1517 5.24023 15.5137C5.98242 14.8691 6.8776 14.3451 7.92578 13.9414C8.98047 13.5378 10.1719 13.3359 11.5 13.3359C12.8216 13.3359 14.0065 13.5378 15.0547 13.9414C16.1094 14.3451 17.0046 14.8691 17.7402 15.5137C18.4824 16.1517 19.0488 16.832 19.4395 17.5547C19.8301 18.2773 20.0254 18.9577 20.0254 19.5957C20.0254 20.6374 19.2279 21.1582 17.6328 21.1582H5.35742ZM4.89844 19.6836H18.1016C18.2253 19.6836 18.3132 19.6641 18.3652 19.625C18.4238 19.5859 18.4531 19.5143 18.4531 19.4102C18.4531 19.013 18.3001 18.554 17.9941 18.0332C17.6947 17.5059 17.2487 16.998 16.6562 16.5098C16.0638 16.0215 15.3346 15.6178 14.4688 15.2988C13.6094 14.9733 12.6198 14.8105 11.5 14.8105C10.3802 14.8105 9.38737 14.9733 8.52148 15.2988C7.6556 15.6178 6.92643 16.0215 6.33398 16.5098C5.74154 16.998 5.29232 17.5059 4.98633 18.0332C4.68685 18.554 4.53711 19.013 4.53711 19.4102C4.53711 19.5143 4.56315 19.5859 4.61523 19.625C4.67383 19.6641 4.76823 19.6836 4.89844 19.6836ZM11.5 12.125C10.7253 12.125 10.0189 11.9199 9.38086 11.5098C8.74284 11.0931 8.23177 10.5397 7.84766 9.84961C7.47005 9.15299 7.28125 8.38802 7.28125 7.55469C7.28125 6.72786 7.47005 5.97591 7.84766 5.29883C8.23177 4.62174 8.74284 4.08138 9.38086 3.67773C10.0189 3.27409 10.7253 3.07227 11.5 3.07227C12.2812 3.07227 12.9909 3.27083 13.6289 3.66797C14.2669 4.0651 14.7747 4.60221 15.1523 5.2793C15.5299 5.94987 15.7188 6.70182 15.7188 7.53516C15.7188 8.375 15.5267 9.14323 15.1426 9.83984C14.765 10.5299 14.2572 11.0833 13.6191 11.5C12.9811 11.9167 12.2747 12.125 11.5 12.125ZM11.5 10.6504C11.9818 10.6504 12.4212 10.5104 12.8184 10.2305C13.222 9.95052 13.5443 9.57617 13.7852 9.10742C14.026 8.63216 14.1465 8.10807 14.1465 7.53516C14.1465 6.96875 14.026 6.46094 13.7852 6.01172C13.5508 5.55599 13.2318 5.19792 12.8281 4.9375C12.431 4.67708 11.9883 4.54688 11.5 4.54688C11.0182 4.54688 10.5755 4.68034 10.1719 4.94727C9.77474 5.21419 9.45573 5.57552 9.21484 6.03125C8.97396 6.48047 8.85352 6.98828 8.85352 7.55469C8.85352 8.1276 8.97396 8.64844 9.21484 9.11719C9.46224 9.58594 9.78451 9.96029 10.1816 10.2402C10.5853 10.5137 11.0247 10.6504 11.5 10.6504Z" fill="#DEA7A7"/>
</svg>
