<svg width="23" height="24" viewBox="0 0 23 24" fill="none" xmlns="http://www.w3.org/2000/svg">
<path d="M15.6484 21.5293C14.7174 21.5293 13.7311 21.3405 12.6895 20.9629C11.6543 20.5853 10.5964 20.0319 9.51562 19.3027C8.4349 18.5801 7.37044 17.6979 6.32227 16.6562C5.27409 15.6081 4.38542 14.5436 3.65625 13.4629C2.93359 12.3757 2.38346 11.3112 2.00586 10.2695C1.63477 9.22786 1.44922 8.24154 1.44922 7.31055C1.44922 6.46419 1.57292 5.74154 1.82031 5.14258C2.06771 4.54362 2.4681 3.99674 3.02148 3.50195C3.06055 3.4694 3.09961 3.43685 3.13867 3.4043C3.18424 3.36523 3.22656 3.32617 3.26562 3.28711C3.92318 2.70117 4.5612 2.41471 5.17969 2.42773C5.53125 2.43424 5.86979 2.54167 6.19531 2.75C6.52083 2.95182 6.83659 3.27083 7.14258 3.70703L9.11523 6.54883C9.41471 6.98503 9.56771 7.44727 9.57422 7.93555C9.58073 8.41732 9.37891 8.86328 8.96875 9.27344L8.22656 10.0254C8.11589 10.1361 8.05404 10.2435 8.04102 10.3477C8.02799 10.4453 8.05404 10.5495 8.11914 10.6602C8.24935 10.8685 8.41211 11.0964 8.60742 11.3438C8.80924 11.5846 9.02734 11.8353 9.26172 12.0957C9.5026 12.3561 9.75 12.6133 10.0039 12.8672C10.2448 13.1081 10.5117 13.362 10.8047 13.6289C11.0977 13.8893 11.3776 14.1302 11.6445 14.3516C11.918 14.5729 12.1426 14.7389 12.3184 14.8496C12.429 14.9212 12.5332 14.9505 12.6309 14.9375C12.735 14.9245 12.8424 14.8626 12.9531 14.752L13.7051 14C14.1152 13.5964 14.5612 13.3978 15.043 13.4043C15.5312 13.4108 15.9935 13.5638 16.4297 13.8633L19.2715 15.8359C19.7077 16.1354 20.0299 16.4512 20.2383 16.7832C20.4466 17.1087 20.5508 17.4473 20.5508 17.7988C20.5508 18.1048 20.4792 18.4206 20.3359 18.7461C20.1992 19.0651 19.9844 19.3874 19.6914 19.7129C19.6523 19.752 19.6133 19.791 19.5742 19.8301C19.5417 19.8757 19.5059 19.918 19.4668 19.957C18.972 20.5169 18.4251 20.9173 17.8262 21.1582C17.2272 21.4056 16.5013 21.5293 15.6484 21.5293ZM15.6582 20.0254C16.1986 20.0189 16.6966 19.9212 17.1523 19.7324C17.6081 19.5436 18.002 19.2572 18.334 18.873C18.3665 18.8405 18.3926 18.8112 18.4121 18.7852C18.4382 18.7526 18.4642 18.7201 18.4902 18.6875C18.7507 18.388 18.8809 18.0918 18.8809 17.7988C18.8809 17.6556 18.8483 17.5221 18.7832 17.3984C18.7246 17.2747 18.6237 17.1641 18.4805 17.0664L15.6387 15.1719C15.4824 15.0742 15.3229 15.0254 15.1602 15.0254C14.9974 15.0254 14.8411 15.1035 14.6914 15.2598L13.832 16.1191C13.4935 16.4577 13.1322 16.627 12.748 16.627C12.3639 16.6204 12.0091 16.4967 11.6836 16.2559C11.4297 16.0671 11.14 15.8359 10.8145 15.5625C10.4954 15.2826 10.1732 14.9961 9.84766 14.7031C9.52865 14.4036 9.24544 14.1302 8.99805 13.8828C8.62044 13.5117 8.2168 13.082 7.78711 12.5938C7.35742 12.1055 7.0026 11.6725 6.72266 11.2949C6.47526 10.9694 6.35156 10.6146 6.35156 10.2305C6.35156 9.83984 6.52083 9.47852 6.85938 9.14648L7.71875 8.28711C7.86849 8.13737 7.94336 7.98112 7.94336 7.81836C7.94987 7.6556 7.90104 7.49609 7.79688 7.33984L5.90234 4.49805C5.73307 4.23112 5.49219 4.09766 5.17969 4.09766C5.03646 4.09766 4.88672 4.13346 4.73047 4.20508C4.58073 4.27018 4.43424 4.36458 4.29102 4.48828C4.25846 4.51432 4.22591 4.54036 4.19336 4.56641C4.16732 4.58594 4.13802 4.61198 4.10547 4.64453C3.72135 4.97656 3.4349 5.37044 3.24609 5.82617C3.05729 6.27539 2.95638 6.77018 2.94336 7.31055C2.93034 8.13737 3.1224 9.03581 3.51953 10.0059C3.91667 10.9694 4.45703 11.9395 5.14062 12.916C5.83073 13.8861 6.59896 14.7943 7.44531 15.6406C8.29167 16.4805 9.1901 17.2357 10.1406 17.9062C11.0911 18.5703 12.0417 19.0944 12.9922 19.4785C13.9427 19.8626 14.8314 20.0449 15.6582 20.0254Z" fill="#DEA7A7"/>
</svg>
