<svg width="20" height="21" viewBox="0 0 20 21" fill="none" xmlns="http://www.w3.org/2000/svg">
<path d="M0.458984 8.61328C0.458984 7.53906 0.660807 6.5332 1.06445 5.5957C1.4681 4.65169 2.02799 3.82161 2.74414 3.10547C3.46029 2.38932 4.28711 1.82943 5.22461 1.42578C6.16862 1.02214 7.17773 0.820312 8.25195 0.820312C9.32617 0.820312 10.332 1.02214 11.2695 1.42578C12.2135 1.82943 13.0436 2.38932 13.7598 3.10547C14.4759 3.82161 15.0358 4.65169 15.4395 5.5957C15.8431 6.5332 16.0449 7.53906 16.0449 8.61328C16.0449 9.50521 15.9017 10.3516 15.6152 11.1523C15.3353 11.9531 14.9447 12.679 14.4434 13.3301L19.2188 18.1348C19.3229 18.2389 19.401 18.3594 19.4531 18.4961C19.5117 18.6328 19.541 18.7793 19.541 18.9355C19.541 19.1504 19.4922 19.3457 19.3945 19.5215C19.3034 19.6973 19.1732 19.834 19.0039 19.9316C18.8346 20.0358 18.6393 20.0879 18.418 20.0879C18.2617 20.0879 18.112 20.0586 17.9688 20C17.832 19.9479 17.7051 19.8665 17.5879 19.7559L12.7832 14.9414C12.1452 15.3971 11.4421 15.7552 10.6738 16.0156C9.9056 16.276 9.09831 16.4062 8.25195 16.4062C7.17773 16.4062 6.16862 16.2044 5.22461 15.8008C4.28711 15.3971 3.46029 14.8372 2.74414 14.1211C2.02799 13.4049 1.4681 12.5781 1.06445 11.6406C0.660807 10.6966 0.458984 9.6875 0.458984 8.61328ZM2.12891 8.61328C2.12891 9.45964 2.28516 10.2539 2.59766 10.9961C2.91667 11.7318 3.35612 12.3796 3.91602 12.9395C4.48242 13.4993 5.13346 13.9388 5.86914 14.2578C6.61133 14.5768 7.4056 14.7363 8.25195 14.7363C9.09831 14.7363 9.88932 14.5768 10.625 14.2578C11.3672 13.9388 12.0182 13.4993 12.5781 12.9395C13.138 12.3796 13.5775 11.7318 13.8965 10.9961C14.2155 10.2539 14.375 9.45964 14.375 8.61328C14.375 7.76693 14.2155 6.97591 13.8965 6.24023C13.5775 5.49805 13.138 4.84701 12.5781 4.28711C12.0182 3.7207 11.3672 3.28125 10.625 2.96875C9.88932 2.64974 9.09831 2.49023 8.25195 2.49023C7.4056 2.49023 6.61133 2.64974 5.86914 2.96875C5.13346 3.28125 4.48242 3.7207 3.91602 4.28711C3.35612 4.84701 2.91667 5.49805 2.59766 6.24023C2.28516 6.97591 2.12891 7.76693 2.12891 8.61328Z" fill="#FFFEEF"/>
</svg>
